<?xml version="1.0" standalone="no"?>
<!DOCTYPE svg PUBLIC "-//W3C//DTD SVG 20010904//EN"
 "http://www.w3.org/TR/2001/REC-SVG-20010904/DTD/svg10.dtd">
<svg version="1.0" xmlns="http://www.w3.org/2000/svg"
 width="1226.000000pt" height="1226.000000pt" viewBox="0 0 1226.000000 1226.000000"
 preserveAspectRatio="xMidYMid meet">
<metadata>
Created by potrace 1.14, written by Peter Selinger 2001-2017
</metadata>
<g transform="translate(0.000000,1226.000000) scale(0.100000,-0.100000)"
fill="#000000" stroke="none">
<path d="M3196 7003 l-829 -827 894 -887 894 -888 1665 0 1665 -1 -1719 1713
c-945 941 -1724 1713 -1730 1714 -6 2 -384 -369 -840 -824z"/>
<path d="M7355 7004 l-830 -826 830 -824 c457 -453 833 -823 837 -821 4 1 378
372 831 824 l823 822 -825 825 c-454 454 -828 826 -831 825 -3 0 -378 -372
-835 -825z"/>
</g>
</svg>
